M48
; DRILL file {KiCad (6.0.8-1)-1} date Friday, March 17, 2023 at 06:51:04 AM
; FORMAT={-:-/ absolute / inch / decimal}
; #@! TF.CreationDate,2023-03-17T06:51:04-04:00
; #@! TF.GenerationSoftware,Kicad,Pcbnew,(6.0.8-1)-1
; #@! TF.FileFunction,Plated,1,2,PTH
FMAT,2
INCH
; #@! TA.AperFunction,Plated,PTH,ComponentDrill
T1C0.1260
; #@! TA.AperFunction,Plated,PTH,ComponentDrill
T2C0.2362
; #@! TA.AperFunction,Plated,PTH,ComponentDrill
T3C0.2756
%
G90
G05
T2
X4.5827Y-3.874
X4.5827Y-4.7362
X4.5827Y-5.2402
X4.9685Y-3.874
X4.9764Y-4.7362
X4.9764Y-5.2402
X5.6417Y-4.0945
X5.748Y-4.7362
X5.748Y-5.2402
X6.1339Y-4.737
X6.1339Y-5.2402
X6.2323Y-4.0945
X6.8976Y-4.7441
X6.8976Y-5.2402
X7.2992Y-4.7441
X7.2992Y-5.2402
T3
X4.6535Y-1.7812
X4.6575Y-2.7756
X5.4961Y-1.7812
X5.5Y-2.7756
X6.3386Y-1.7812
X6.3425Y-2.7756
X7.1772Y-1.7913
X7.1811Y-2.7857
T1
G00X4.5591Y-1.0984
M15
G01X4.6693Y-1.0984
M16
G05
G00X7.2087Y-5.9173
M15
G01X7.3189Y-5.9173
M16
G05
T0
M30
